<svg width="290" height="280" viewBox="0 0 290 280" fill="none" xmlns="http://www.w3.org/2000/svg">
    <path opacity="0.5"
          d="M265.159 181.603L247.403 171.271C245.904 170.406 246.092 168.895 247.822 167.896L264.746 158.035C266.476 157.037 269.094 156.928 270.592 157.792L288.349 168.124C289.848 168.989 289.659 170.5 287.929 171.499L271.005 181.359C269.275 182.359 266.657 182.467 265.159 181.603Z"
          fill="#C4D9E8"/>
    <path d="M289.353 159.706V156.149L270.463 156.138L270.593 156.134C269.095 155.269 266.476 155.377 264.746 156.377L265.306 156.143L246.399 156.132V159.928C246.356 160.514 246.682 161.079 247.402 161.495L265.158 171.826C266.657 172.691 269.275 172.583 271.005 171.584L287.929 161.723C288.927 161.148 289.41 160.401 289.353 159.706Z"
          fill="#173D7A"/>
    <path d="M267.881 155.554C266.784 155.58 265.647 155.857 264.747 156.376L265.307 156.142L246.399 156.131V159.928C246.356 160.514 246.683 161.079 247.403 161.495L265.159 171.826C265.879 172.242 266.858 172.429 267.873 172.405L267.881 155.554Z"
          fill="#396CAA"/>
    <path d="M248.538 156.133L246.399 156.132V159.928C246.356 160.514 246.683 161.079 247.403 161.495L248.538 162.151V156.133Z"
          fill="#B2D3EA"/>
    <path d="M265.536 172.011C266.828 172.565 268.697 172.534 270.209 171.958V166.988H265.536V172.011Z" fill="#274F89"/>
    <path d="M265.159 168.061L247.403 157.73C245.904 156.865 246.092 155.354 247.822 154.355L264.746 144.495C266.476 143.496 269.094 143.387 270.592 144.252L288.349 154.583C289.848 155.448 289.659 156.959 287.929 157.958L271.005 167.819C269.275 168.818 266.657 168.926 265.159 168.061Z"
          fill="#D4ECFF"/>
    <path d="M272.459 159.991L260.757 153.235C260.059 152.832 260.059 152.178 260.757 151.776C261.455 151.373 262.587 151.373 263.284 151.776L274.986 158.533C275.684 158.936 275.684 159.589 274.986 159.991C274.289 160.394 273.157 160.394 272.459 159.991Z"
          fill="white"/>
    <path opacity="0.5"
          d="M139.306 236.275L30.1815 173.271C27.0948 171.49 27.4818 168.376 31.0462 166.318L105.352 123.432C108.916 121.374 114.308 121.151 117.395 122.932L226.52 185.936C229.606 187.718 229.219 190.831 225.656 192.889L151.349 235.775C147.786 237.833 142.394 238.057 139.306 236.275Z"
          fill="#C4D9E8"/>
    <path d="M254.507 70.3937L143.241 6.15392C141.95 5.40806 140.636 5.29235 139.471 5.69186L139.478 5.68014L139.276 5.75675C139.259 5.76301 139.243 5.76848 139.227 5.77552L135.205 7.31414L138.814 9.08105C138.797 9.14751 138.777 9.21005 138.762 9.27729L120.64 91.7741C119.733 95.9029 121.549 100.723 124.697 102.54L233.287 165.234L232.9 169.836L237.294 168.132C238.771 167.442 239.952 165.88 240.441 163.656L258.565 81.1586C259.472 77.0305 257.655 72.2106 254.507 70.3937Z"
          fill="#173D7A"/>
    <path d="M254.507 70.3937L143.241 6.15392C141.949 5.40806 140.636 5.29235 139.471 5.69186L139.478 5.68014L139.276 5.75675C139.259 5.76301 139.243 5.76848 139.226 5.77552L135.205 7.31414L138.814 9.08105C138.797 9.14751 138.777 9.21005 138.762 9.27729L126.818 63.6473L181.259 106.062L258.022 74.8266C257.284 72.9158 256.058 71.2896 254.507 70.3937Z"
          fill="#396CAA"/>
    <path d="M250.312 83.074L258.782 79.4675C258.937 76.1878 257.58 72.7986 255.35 70.9863L241.943 76.6256L250.312 83.074Z"
          fill="#274F89"/>
    <path d="M229.033 169.4L117.767 105.16C114.62 103.343 112.803 98.5231 113.711 94.3935L131.834 11.8967C132.741 7.76794 136.028 5.8947 139.176 7.71165L250.442 71.9514C253.589 73.7684 255.406 78.5883 254.498 82.7178L236.375 165.215C235.468 169.343 232.181 171.217 229.033 169.4Z"
          fill="#D4ECFF"/>
    <path d="M226.621 163.263L121.977 102.876C119.097 101.214 117.435 96.8033 118.265 93.0248L134.85 17.5331C135.68 13.7545 138.687 12.0408 141.568 13.7037L246.212 74.0899C249.092 75.7528 250.755 80.1638 249.924 83.9416L233.339 159.434C232.509 163.212 229.502 164.926 226.621 163.263Z"
          fill="white"/>
    <path d="M226.621 163.263L121.977 102.876C119.097 101.214 117.435 96.8033 118.265 93.0248L134.85 17.5331C135.68 13.7545 138.687 12.0408 141.568 13.7037L246.212 74.0899C249.092 75.7528 250.755 80.1638 249.924 83.9416L233.339 159.434C232.509 163.212 229.502 164.926 226.621 163.263Z"
          fill="white"/>
    <path d="M230.57 172.197L215.361 170.189L117.182 113.505C114.034 111.688 108.535 111.916 104.901 114.014L35.332 154.165L26.1355 152.95V158.169L26.1441 158.17C26.0839 159.376 26.7703 160.535 28.2558 161.393L139.522 225.633C142.67 227.45 148.168 227.222 151.802 225.124L227.567 181.396C229.61 180.215 230.631 178.695 230.57 177.266V172.197H230.57Z"
          fill="#173D7A"/>
    <path d="M156.801 136.379L149.826 132.353H73.137L35.3313 154.165L26.1348 152.95V158.169L26.1434 158.17C26.0832 159.376 26.7696 160.536 28.255 161.393L139.521 225.633C141.185 226.594 143.505 226.977 145.859 226.821L156.801 136.379Z"
          fill="#396CAA"/>
    <path d="M30.2159 153.49L26.1348 152.951V158.17L26.1434 158.171C26.0832 159.377 26.7696 160.536 28.255 161.394L30.2159 162.526V153.49Z"
          fill="#5793CE"/>
    <path d="M140.642 226.155C143.624 227.286 147.891 227.04 151.076 225.507V213.867H140.642V226.155Z" fill="#274F89"/>
    <path d="M139.521 220.421L28.255 156.181C25.1074 154.364 25.5023 151.19 29.1369 149.092L104.901 105.364C108.535 103.265 114.034 103.037 117.182 104.856L228.447 169.095C231.595 170.912 231.2 174.087 227.566 176.185L151.801 219.913C148.167 222.01 142.669 222.239 139.521 220.421Z"
          fill="white"/>
    <path d="M75.5784 134.915L70.5443 132.009C70.1401 131.776 70.1909 131.368 70.6577 131.098L76.6003 127.667C77.0678 127.397 77.773 127.369 78.178 127.602L83.2121 130.509C83.6163 130.742 83.5655 131.15 83.098 131.42L77.1554 134.851C76.6886 135.12 75.9818 135.148 75.5784 134.915Z"
          fill="#173D7A"/>
    <path d="M83.3531 139.403L78.319 136.497C77.9148 136.264 77.9656 135.856 78.4323 135.587L84.3749 132.156C84.8425 131.886 85.5477 131.857 85.9526 132.09L90.9868 134.997C91.391 135.231 91.3402 135.637 90.8726 135.908L84.93 139.339C84.4633 139.607 83.7573 139.637 83.3531 139.403Z"
          fill="#173D7A"/>
    <path d="M91.1271 143.892L86.093 140.985C85.688 140.752 85.7396 140.344 86.2063 140.075L92.1489 136.644C92.6157 136.374 93.3217 136.345 93.7266 136.578L98.76 139.485C99.165 139.719 99.1134 140.126 98.6466 140.395L92.704 143.826C92.2373 144.096 91.5313 144.125 91.1271 143.892Z"
          fill="#173D7A"/>
    <path d="M101.879 140.185L96.8453 137.279C96.4411 137.045 96.4919 136.638 96.9587 136.368L101.947 133.488C102.414 133.218 103.12 133.189 103.524 133.422L108.559 136.329C108.964 136.563 108.912 136.97 108.445 137.24L103.457 140.12C102.99 140.389 102.284 140.418 101.879 140.185Z"
          fill="#173D7A"/>
    <path d="M109.655 144.674L104.62 141.767C104.216 141.533 104.267 141.126 104.734 140.856L109.723 137.976C110.189 137.706 110.895 137.677 111.3 137.91L116.334 140.818C116.738 141.051 116.687 141.458 116.22 141.728L111.232 144.608C110.765 144.878 110.058 144.907 109.655 144.674Z"
          fill="#173D7A"/>
    <path d="M117.429 149.163L112.395 146.256C111.99 146.022 112.042 145.615 112.508 145.345L117.496 142.465C117.964 142.195 118.67 142.166 119.074 142.4L124.108 145.306C124.512 145.54 124.462 145.947 123.995 146.217L119.006 149.097C118.539 149.367 117.833 149.396 117.429 149.163Z"
          fill="#173D7A"/>
    <path d="M125.203 153.651L120.17 150.745C119.765 150.511 119.816 150.103 120.283 149.834L125.271 146.953C125.739 146.684 126.444 146.655 126.849 146.888L131.883 149.795C132.287 150.029 132.236 150.436 131.769 150.705L126.781 153.586C126.314 153.855 125.608 153.885 125.203 153.651Z"
          fill="#173D7A"/>
    <path d="M132.978 158.141L127.945 155.235C127.54 155.001 127.59 154.594 128.058 154.324L133.046 151.444C133.513 151.174 134.219 151.145 134.624 151.379L139.658 154.285C140.062 154.518 140.011 154.926 139.544 155.196L134.556 158.076C134.089 158.345 133.382 158.374 132.978 158.141Z"
          fill="#173D7A"/>
    <path d="M140.752 162.629L135.718 159.722C135.314 159.488 135.365 159.081 135.832 158.811L140.82 155.931C141.287 155.661 141.993 155.632 142.398 155.866L147.432 158.773C147.837 159.006 147.785 159.413 147.318 159.683L142.33 162.563C141.863 162.832 141.157 162.863 140.752 162.629Z"
          fill="#173D7A"/>
    <path d="M148.527 167.117L143.493 164.21C143.089 163.976 143.14 163.569 143.607 163.3L148.595 160.42C149.062 160.149 149.768 160.12 150.172 160.354L155.206 163.261C155.611 163.494 155.56 163.901 155.093 164.171L150.105 167.051C149.637 167.321 148.931 167.35 148.527 167.117Z"
          fill="#173D7A"/>
    <path d="M156.302 171.605L151.268 168.698C150.864 168.465 150.915 168.058 151.381 167.787L156.37 164.907C156.837 164.638 157.543 164.609 157.947 164.842L162.981 167.749C163.385 167.983 163.335 168.39 162.868 168.659L157.879 171.539C157.412 171.809 156.705 171.839 156.302 171.605Z"
          fill="#173D7A"/>
    <path d="M164.077 176.094L159.042 173.188C158.637 172.954 158.689 172.547 159.156 172.278L164.145 169.397C164.611 169.127 165.317 169.098 165.722 169.332L170.756 172.239C171.16 172.472 171.109 172.879 170.642 173.149L165.653 176.03C165.187 176.299 164.481 176.328 164.077 176.094Z"
          fill="#173D7A"/>
    <path d="M171.851 180.583L166.817 177.677C166.412 177.444 166.463 177.036 166.93 176.766L171.918 173.886C172.386 173.617 173.092 173.587 173.496 173.821L178.53 176.728C178.934 176.961 178.883 177.369 178.416 177.638L173.428 180.518C172.961 180.788 172.255 180.816 171.851 180.583Z"
          fill="#173D7A"/>
    <path d="M113.336 138.061L108.302 135.154C107.897 134.92 107.948 134.513 108.415 134.244L113.404 131.364C113.871 131.094 114.577 131.065 114.981 131.298L120.015 134.205C120.419 134.439 120.368 134.845 119.902 135.116L114.913 137.996C114.446 138.265 113.739 138.295 113.336 138.061Z"
          fill="#396CAA"/>
    <path d="M105.445 133.504L100.411 130.597C100.006 130.364 100.057 129.957 100.524 129.687L105.513 126.807C105.979 126.537 106.685 126.508 107.09 126.741L112.124 129.648C112.529 129.882 112.477 130.289 112.01 130.559L107.022 133.439C106.555 133.708 105.849 133.738 105.445 133.504Z"
          fill="#396CAA"/>
    <path d="M97.5412 128.941L86.6989 122.681C86.2939 122.447 86.3455 122.04 86.8123 121.77L91.8003 118.89C92.2678 118.62 92.9738 118.591 93.378 118.824L104.22 125.085C104.625 125.318 104.574 125.725 104.107 125.995L99.1189 128.875C98.6506 129.145 97.9454 129.174 97.5412 128.941Z"
          fill="#173D7A"/>
    <path d="M103.066 123.392L94.2662 118.312C93.862 118.078 93.9128 117.671 94.3796 117.401L99.3684 114.521C99.8351 114.251 100.541 114.222 100.945 114.456L109.745 119.536C110.15 119.769 110.098 120.177 109.631 120.447L104.643 123.327C104.176 123.596 103.47 123.625 103.066 123.392Z"
          fill="#173D7A"/>
    <path d="M121.11 142.548L116.076 139.642C115.671 139.409 115.722 139.001 116.189 138.731L121.177 135.851C121.645 135.582 122.351 135.552 122.755 135.786L127.789 138.692C128.193 138.926 128.142 139.333 127.675 139.602L122.687 142.483C122.22 142.753 121.514 142.782 121.11 142.548Z"
          fill="#396CAA"/>
    <path d="M128.884 147.037L123.85 144.13C123.445 143.897 123.497 143.489 123.964 143.22L128.952 140.34C129.419 140.07 130.124 140.04 130.529 140.274L135.564 143.181C135.968 143.414 135.917 143.821 135.449 144.091L130.461 146.972C129.995 147.241 129.289 147.27 128.884 147.037Z"
          fill="#173D7A"/>
    <path d="M136.659 151.526L131.625 148.619C131.22 148.386 131.271 147.978 131.739 147.709L136.727 144.828C137.193 144.559 137.899 144.53 138.304 144.763L143.338 147.67C143.743 147.903 143.691 148.311 143.224 148.58L138.236 151.461C137.769 151.73 137.063 151.759 136.659 151.526Z"
          fill="#173D7A"/>
    <path d="M144.433 156.015L139.399 153.107C138.995 152.874 139.046 152.467 139.513 152.197L144.501 149.317C144.968 149.047 145.674 149.018 146.078 149.251L151.112 152.158C151.517 152.392 151.466 152.799 150.999 153.069L146.011 155.949C145.544 156.218 144.838 156.248 144.433 156.015Z"
          fill="#173D7A"/>
    <path d="M152.208 160.503L147.173 157.597C146.769 157.363 146.82 156.956 147.287 156.686L152.276 153.806C152.742 153.536 153.448 153.507 153.853 153.741L158.887 156.647C159.292 156.881 159.24 157.288 158.773 157.558L153.785 160.438C153.318 160.708 152.612 160.737 152.208 160.503Z"
          fill="#173D7A"/>
    <path d="M159.983 164.993L154.949 162.086C154.544 161.853 154.595 161.445 155.062 161.175L160.051 158.295C160.518 158.026 161.223 157.997 161.628 158.23L166.662 161.136C167.066 161.37 167.015 161.778 166.548 162.047L161.56 164.927C161.093 165.197 160.386 165.226 159.983 164.993Z"
          fill="#173D7A"/>
    <path d="M167.757 169.481L162.723 166.574C162.318 166.341 162.37 165.933 162.836 165.664L167.825 162.783C168.292 162.514 168.998 162.485 169.402 162.719L174.436 165.625C174.841 165.858 174.79 166.266 174.323 166.535L169.334 169.416C168.867 169.685 168.161 169.714 167.757 169.481Z"
          fill="#173D7A"/>
    <path d="M175.531 173.97L170.498 171.063C170.093 170.829 170.144 170.422 170.611 170.152L175.599 167.272C176.066 167.002 176.772 166.973 177.177 167.207L182.211 170.114C182.615 170.347 182.564 170.754 182.097 171.024L177.109 173.904C176.642 174.173 175.936 174.203 175.531 173.97Z"
          fill="#173D7A"/>
    <path d="M183.306 178.458L178.272 175.551C177.868 175.317 177.919 174.91 178.386 174.64L183.374 171.76C183.841 171.49 184.547 171.461 184.952 171.695L189.986 174.602C190.39 174.835 190.339 175.242 189.872 175.512L184.884 178.392C184.416 178.662 183.71 178.691 183.306 178.458Z"
          fill="#173D7A"/>
    <path d="M197.128 186.437L186.143 180.096C185.739 179.862 185.79 179.455 186.257 179.186L191.245 176.306C191.712 176.035 192.418 176.006 192.822 176.24L203.807 182.581C204.212 182.815 204.16 183.222 203.693 183.492L198.705 186.372C198.237 186.642 197.532 186.671 197.128 186.437Z"
          fill="#173D7A"/>
    <path d="M212.264 177.699L202.993 172.346C202.588 172.112 202.64 171.705 203.107 171.435L208.095 168.555C208.562 168.285 209.267 168.256 209.672 168.49L218.943 173.842C219.347 174.076 219.297 174.483 218.83 174.753L213.841 177.633C213.374 177.903 212.668 177.932 212.264 177.699Z"
          fill="#173D7A"/>
    <path d="M134.725 141.67L129.691 138.764C129.287 138.531 129.337 138.123 129.804 137.854L134.793 134.973C135.26 134.704 135.966 134.674 136.37 134.908L141.404 137.815C141.809 138.048 141.757 138.455 141.291 138.725L136.302 141.605C135.835 141.875 135.129 141.904 134.725 141.67Z"
          fill="#173D7A"/>
    <path d="M126.757 137.071L121.723 134.164C121.319 133.931 121.37 133.523 121.836 133.254L126.825 130.373C127.292 130.104 127.998 130.075 128.402 130.308L133.436 133.214C133.84 133.448 133.79 133.855 133.323 134.125L128.334 137.005C127.867 137.275 127.161 137.304 126.757 137.071Z"
          fill="#173D7A"/>
    <path d="M118.789 132.47L113.755 129.564C113.35 129.331 113.401 128.923 113.868 128.653L118.857 125.773C119.324 125.503 120.03 125.474 120.434 125.707L125.468 128.614C125.872 128.848 125.821 129.255 125.355 129.525L120.366 132.405C119.899 132.674 119.193 132.703 118.789 132.47Z"
          fill="#396CAA"/>
    <path d="M110.821 127.87L105.787 124.963C105.382 124.73 105.434 124.322 105.901 124.052L110.889 121.172C111.356 120.902 112.061 120.873 112.466 121.107L117.501 124.014C117.905 124.247 117.854 124.655 117.386 124.924L112.398 127.804C111.932 128.074 111.226 128.104 110.821 127.87Z"
          fill="#173D7A"/>
    <path d="M142.499 146.159L137.465 143.252C137.061 143.018 137.111 142.611 137.578 142.342L142.567 139.462C143.034 139.191 143.74 139.162 144.144 139.396L149.178 142.303C149.582 142.536 149.531 142.943 149.065 143.213L144.076 146.093C143.609 146.363 142.903 146.392 142.499 146.159Z"
          fill="#173D7A"/>
    <path d="M150.274 150.648L145.24 147.741C144.835 147.508 144.887 147.101 145.354 146.83L150.342 143.95C150.809 143.681 151.515 143.652 151.919 143.885L156.953 146.792C157.358 147.026 157.307 147.433 156.84 147.702L151.851 150.582C151.384 150.852 150.678 150.881 150.274 150.648Z"
          fill="#173D7A"/>
    <path d="M158.048 155.136L153.014 152.229C152.609 151.996 152.661 151.588 153.128 151.319L158.116 148.439C158.583 148.169 159.288 148.14 159.693 148.373L164.728 151.28C165.132 151.513 165.081 151.921 164.613 152.191L159.625 155.071C159.159 155.339 158.453 155.37 158.048 155.136Z"
          fill="#173D7A"/>
    <path d="M165.822 159.625L160.788 156.719C160.384 156.486 160.435 156.078 160.902 155.809L165.89 152.928C166.357 152.659 167.063 152.629 167.468 152.863L172.502 155.77C172.906 156.003 172.856 156.411 172.388 156.68L167.4 159.56C166.932 159.83 166.227 159.859 165.822 159.625Z"
          fill="#173D7A"/>
    <path d="M173.598 164.114L168.564 161.207C168.159 160.973 168.21 160.567 168.678 160.297L173.666 157.417C174.132 157.147 174.838 157.117 175.243 157.351L180.277 160.258C180.682 160.492 180.63 160.898 180.163 161.169L175.175 164.049C174.708 164.318 174.002 164.348 173.598 164.114Z"
          fill="#173D7A"/>
    <path d="M181.372 168.602L176.338 165.695C175.933 165.462 175.984 165.055 176.451 164.785L181.44 161.905C181.906 161.635 182.612 161.606 183.017 161.839L188.051 164.746C188.456 164.98 188.404 165.387 187.937 165.657L182.949 168.537C182.482 168.807 181.776 168.835 181.372 168.602Z"
          fill="#173D7A"/>
    <path d="M189.146 173.092L184.112 170.184C183.708 169.952 183.759 169.544 184.226 169.274L189.214 166.394C189.681 166.125 190.387 166.095 190.791 166.329L195.825 169.235C196.23 169.469 196.179 169.876 195.712 170.146L190.723 173.026C190.256 173.295 189.551 173.324 189.146 173.092Z"
          fill="#173D7A"/>
    <path d="M196.921 177.579L191.887 174.673C191.482 174.439 191.534 174.032 192.001 173.762L196.989 170.882C197.456 170.612 198.162 170.584 198.566 170.817L203.6 173.723C204.005 173.957 203.954 174.364 203.487 174.634L198.498 177.514C198.031 177.783 197.325 177.813 196.921 177.579Z"
          fill="#173D7A"/>
    <path d="M204.695 182.068L199.662 179.162C199.257 178.928 199.308 178.52 199.775 178.251L204.763 175.37C205.231 175.101 205.936 175.072 206.341 175.305L211.375 178.212C211.779 178.445 211.728 178.853 211.261 179.122L206.273 182.003C205.806 182.272 205.1 182.301 204.695 182.068Z"
          fill="#173D7A"/>
    <path d="M130.631 130.567L125.597 127.661C125.193 127.428 125.243 127.019 125.711 126.75L130.699 123.87C131.166 123.6 131.872 123.571 132.276 123.804L137.31 126.711C137.715 126.944 137.663 127.352 137.197 127.621L132.208 130.502C131.741 130.772 131.034 130.801 130.631 130.567Z"
          fill="#173D7A"/>
    <path d="M122.895 126.102L117.861 123.196C117.457 122.963 117.508 122.554 117.974 122.285L122.963 119.405C123.43 119.135 124.136 119.106 124.54 119.34L129.574 122.246C129.978 122.479 129.928 122.888 129.461 123.157L124.472 126.037C124.005 126.306 123.299 126.335 122.895 126.102Z"
          fill="#173D7A"/>
    <path d="M115.16 121.636L110.126 118.729C109.721 118.495 109.772 118.088 110.239 117.818L115.227 114.938C115.695 114.668 116.401 114.639 116.805 114.873L121.839 117.779C122.243 118.012 122.192 118.42 121.726 118.69L116.737 121.57C116.27 121.84 115.563 121.869 115.16 121.636Z"
          fill="#173D7A"/>
    <path d="M107.423 117.17L102.389 114.263C101.984 114.029 102.036 113.622 102.503 113.352L107.491 110.472C107.958 110.202 108.663 110.173 109.068 110.407L114.103 113.314C114.507 113.547 114.456 113.954 113.988 114.224L109 117.104C108.534 117.374 107.828 117.404 107.423 117.17Z"
          fill="#173D7A"/>
    <path d="M115.378 112.577L110.344 109.67C109.939 109.437 109.991 109.029 110.458 108.759L112.106 107.807C112.573 107.537 113.279 107.508 113.683 107.742L118.717 110.649C119.122 110.882 119.071 111.29 118.604 111.56L116.955 112.512C116.489 112.781 115.783 112.81 115.378 112.577Z"
          fill="#173D7A"/>
    <path d="M125.473 118.405L120.439 115.499C120.035 115.265 120.086 114.858 120.553 114.588L122.202 113.636C122.669 113.366 123.374 113.337 123.779 113.571L128.813 116.478C129.218 116.711 129.167 117.119 128.699 117.389L127.05 118.341C126.584 118.609 125.878 118.638 125.473 118.405Z"
          fill="#173D7A"/>
    <path d="M133.177 122.854L128.143 119.947C127.739 119.714 127.79 119.306 128.257 119.036L129.905 118.085C130.373 117.815 131.078 117.785 131.483 118.019L136.516 120.926C136.921 121.159 136.871 121.567 136.403 121.837L134.754 122.789C134.287 123.057 133.581 123.088 133.177 122.854Z"
          fill="#173D7A"/>
    <path d="M140.881 127.3L135.847 124.394C135.443 124.161 135.493 123.752 135.96 123.483L137.609 122.531C138.076 122.261 138.782 122.232 139.187 122.466L144.22 125.372C144.625 125.605 144.573 126.014 144.107 126.283L142.458 127.235C141.991 127.504 141.285 127.533 140.881 127.3Z"
          fill="#173D7A"/>
    <path d="M148.585 131.749L143.551 128.842C143.146 128.608 143.197 128.201 143.664 127.931L145.313 126.979C145.78 126.709 146.486 126.68 146.891 126.914L151.924 129.821C152.329 130.054 152.277 130.461 151.811 130.731L150.162 131.683C149.695 131.952 148.988 131.982 148.585 131.749Z"
          fill="#173D7A"/>
    <path d="M191.593 156.579L186.559 153.673C186.154 153.439 186.205 153.032 186.672 152.762L188.321 151.81C188.788 151.54 189.493 151.511 189.898 151.744L194.932 154.651C195.337 154.885 195.285 155.292 194.818 155.562L193.17 156.514C192.703 156.784 191.997 156.813 191.593 156.579Z"
          fill="#173D7A"/>
    <path d="M199.296 161.027L194.263 158.12C193.858 157.886 193.909 157.479 194.376 157.209L196.025 156.258C196.492 155.987 197.198 155.958 197.602 156.192L202.636 159.099C203.041 159.332 202.989 159.739 202.523 160.009L200.874 160.961C200.407 161.231 199.701 161.261 199.296 161.027Z"
          fill="#173D7A"/>
    <path d="M206.999 165.474L201.966 162.567C201.561 162.334 201.612 161.926 202.079 161.657L203.728 160.704C204.195 160.435 204.901 160.406 205.305 160.639L210.339 163.546C210.743 163.779 210.692 164.187 210.226 164.456L208.577 165.409C208.11 165.678 207.404 165.707 206.999 165.474Z"
          fill="#173D7A"/>
    <path d="M214.703 169.923L209.67 167.016C209.265 166.783 209.316 166.375 209.783 166.106L211.432 165.153C211.899 164.884 212.605 164.855 213.009 165.088L218.043 167.995C218.447 168.229 218.397 168.636 217.93 168.905L216.281 169.858C215.814 170.127 215.108 170.156 214.703 169.923Z"
          fill="#173D7A"/>
    <path d="M138.406 135.058L133.371 132.151C132.967 131.918 133.018 131.51 133.485 131.24L138.474 128.36C138.94 128.09 139.646 128.061 140.051 128.294L145.085 131.201C145.489 131.434 145.438 131.842 144.971 132.112L139.983 134.992C139.516 135.262 138.81 135.291 138.406 135.058Z"
          fill="#173D7A"/>
    <path d="M146.18 139.545L141.145 136.639C140.74 136.405 140.792 135.998 141.259 135.728L146.248 132.848C146.714 132.578 147.42 132.549 147.825 132.783L152.859 135.689C153.263 135.923 153.212 136.33 152.745 136.6L147.757 139.48C147.29 139.75 146.584 139.779 146.18 139.545Z"
          fill="#173D7A"/>
    <path d="M153.955 144.035L148.921 141.128C148.516 140.895 148.567 140.487 149.034 140.217L154.022 137.337C154.49 137.068 155.196 137.039 155.6 137.272L160.634 140.179C161.038 140.412 160.987 140.819 160.52 141.089L155.532 143.969C155.065 144.238 154.358 144.267 153.955 144.035Z"
          fill="#173D7A"/>
    <path d="M161.729 148.523L156.695 145.616C156.29 145.383 156.342 144.975 156.809 144.706L161.797 141.825C162.264 141.556 162.969 141.527 163.374 141.761L168.408 144.667C168.813 144.9 168.762 145.308 168.294 145.577L163.306 148.458C162.84 148.727 162.134 148.756 161.729 148.523Z"
          fill="#173D7A"/>
    <path d="M169.503 153.012L164.469 150.105C164.065 149.871 164.115 149.464 164.583 149.194L169.571 146.314C170.038 146.044 170.744 146.015 171.149 146.248L176.182 149.156C176.587 149.389 176.535 149.796 176.069 150.066L171.081 152.946C170.613 153.216 169.908 153.245 169.503 153.012Z"
          fill="#173D7A"/>
    <path d="M177.278 157.5L172.244 154.593C171.84 154.359 171.891 153.952 172.358 153.682L177.346 150.802C177.813 150.532 178.519 150.503 178.923 150.737L183.957 153.643C184.362 153.877 184.311 154.284 183.844 154.554L178.856 157.434C178.388 157.704 177.682 157.733 177.278 157.5Z"
          fill="#173D7A"/>
    <path d="M185.053 161.989L180.018 159.082C179.614 158.848 179.665 158.441 180.132 158.171L185.121 155.291C185.587 155.022 186.293 154.992 186.698 155.226L191.732 158.133C192.137 158.366 192.085 158.773 191.618 159.043L186.63 161.923C186.163 162.193 185.457 162.223 185.053 161.989Z"
          fill="#173D7A"/>
    <path d="M192.828 166.477L187.794 163.571C187.39 163.337 187.44 162.929 187.907 162.661L192.896 159.78C193.363 159.51 194.069 159.481 194.473 159.715L199.507 162.621C199.911 162.854 199.86 163.262 199.394 163.531L194.405 166.412C193.937 166.681 193.231 166.71 192.828 166.477Z"
          fill="#173D7A"/>
    <path d="M200.602 170.966L195.568 168.06C195.163 167.826 195.215 167.419 195.681 167.149L200.669 164.269C201.137 164 201.843 163.97 202.247 164.204L207.281 167.11C207.685 167.344 207.635 167.751 207.167 168.02L202.179 170.901C201.712 171.17 201.006 171.2 200.602 170.966Z"
          fill="#173D7A"/>
    <path d="M93.9574 135.61L79.1302 127.05C78.726 126.817 78.7768 126.409 79.2443 126.139L84.2323 123.259C84.6991 122.989 85.405 122.96 85.81 123.193L100.636 131.754C101.041 131.987 100.99 132.395 100.523 132.664L95.5343 135.545C95.0676 135.814 94.3608 135.844 93.9574 135.61Z"
          fill="#173D7A"/>
    <path d="M189.47 190.755L174.643 182.195C174.238 181.962 174.289 181.555 174.756 181.285L179.745 178.405C180.212 178.135 180.918 178.106 181.322 178.339L196.149 186.899C196.553 187.132 196.502 187.539 196.036 187.81L191.047 190.69C190.58 190.959 189.873 190.989 189.47 190.755Z"
          fill="#173D7A"/>
    <path d="M158.378 182.719L153.344 179.812C152.939 179.579 152.99 179.172 153.457 178.902L159.4 175.471C159.867 175.201 160.572 175.172 160.977 175.406L166.011 178.313C166.416 178.546 166.365 178.953 165.897 179.223L159.955 182.654C159.488 182.924 158.782 182.953 158.378 182.719Z"
          fill="#173D7A"/>
    <path d="M101.919 150.123L93.8676 145.475C93.4626 145.241 93.5142 144.834 93.981 144.564L99.9236 141.133C100.39 140.864 101.096 140.834 101.501 141.068L109.552 145.716C109.957 145.949 109.906 146.357 109.438 146.627L103.497 150.057C103.029 150.327 102.323 150.356 101.919 150.123Z"
          fill="#173D7A"/>
    <path d="M150.887 178.396L142.835 173.747C142.431 173.514 142.482 173.107 142.949 172.837L148.892 169.406C149.359 169.136 150.065 169.107 150.469 169.341L158.52 173.989C158.925 174.222 158.874 174.63 158.407 174.899L152.464 178.33C151.997 178.599 151.291 178.629 150.887 178.396Z"
          fill="#173D7A"/>
    <path d="M113.136 156.599L105.084 151.951C104.68 151.717 104.731 151.31 105.198 151.041L111.141 147.61C111.608 147.34 112.313 147.311 112.718 147.544L120.769 152.193C121.174 152.426 121.122 152.833 120.656 153.103L114.713 156.534C114.246 156.804 113.539 156.833 113.136 156.599Z"
          fill="#173D7A"/>
    <path d="M112.772 147.576L147.776 167.786C148.211 168.036 148.211 168.444 147.776 168.695L141.716 172.193C141.282 172.444 140.578 172.444 140.143 172.193L105.139 151.983L112.772 147.576Z"
          fill="#173D7A"/>
    <path d="M180.106 190.859L185.714 194.097C186.046 194.287 186.004 194.622 185.622 194.843L183.191 196.247C182.809 196.467 182.23 196.491 181.899 196.3L176.291 193.061C175.959 192.871 176.001 192.536 176.384 192.316L178.814 190.912C179.196 190.691 179.775 190.667 180.106 190.859Z"
          fill="#173D7A"/>
    <path d="M172.268 186.331L177.876 189.569C178.207 189.761 178.165 190.094 177.783 190.316L175.353 191.719C174.97 191.939 174.392 191.964 174.06 191.772L168.452 188.535C168.121 188.343 168.162 188.008 168.545 187.788L170.975 186.385C171.358 186.164 171.936 186.14 172.268 186.331Z"
          fill="#173D7A"/>
    <path d="M164.493 181.842L170.101 185.081C170.432 185.272 170.391 185.606 170.008 185.827L167.578 187.231C167.195 187.451 166.617 187.476 166.285 187.284L160.677 184.046C160.346 183.855 160.387 183.52 160.77 183.3L163.2 181.896C163.582 181.676 164.161 181.652 164.493 181.842Z"
          fill="#173D7A"/>
    <path d="M176.561 183.853L182.169 187.091C182.5 187.282 182.459 187.617 182.076 187.837L179.646 189.24C179.263 189.461 178.685 189.485 178.353 189.294L172.745 186.056C172.414 185.865 172.455 185.531 172.838 185.31L175.268 183.906C175.651 183.686 176.229 183.661 176.561 183.853Z"
          fill="#173D7A"/>
    <path d="M240.181 66.0269L204.128 45.2117L171.595 31.0303L165.38 57.0367C165.38 57.0367 156.534 89.0319 187.23 126.6C226.263 129.289 233 96.0769 233 96.0769L240.181 66.0269Z"
          fill="#D4ECFF"/>
    <path d="M230.913 60.6786L240.179 66.0278L244.401 64.5604L231.733 57.2472L171.592 31.0312L170.503 35.5885L230.913 60.6786Z"
          fill="#173D7A"/>
    <path d="M240.179 66.0279L230.913 60.6787L229.95 64.7082L239.216 70.0543L240.179 66.0279Z" fill="#396CAA"/>
    <g opacity="0.5">
        <path opacity="0.5"
              d="M163.13 46.3536L156.371 42.4516C155.744 42.0896 155.375 41.1936 155.547 40.4501C155.719 39.7074 156.366 39.3978 156.993 39.7598L163.752 43.6618C164.379 44.0238 164.748 44.9198 164.577 45.6633C164.405 46.406 163.757 46.7148 163.13 46.3536Z"
              fill="#D4ECFF"/>
        <path opacity="0.5"
              d="M179.23 55.6485L169.264 49.8951C168.637 49.5331 168.268 48.6371 168.439 47.8936C168.611 47.1501 169.258 46.8413 169.885 47.2033L179.851 52.9567C180.478 53.3187 180.847 54.2146 180.676 54.9581C180.504 55.7016 179.857 56.0112 179.23 55.6485Z"
              fill="#D4ECFF"/>
        <path opacity="0.5"
              d="M151.35 77.9006L144.591 73.9986C143.963 73.6366 143.595 72.7406 143.765 71.9971C143.937 71.2536 144.585 70.9448 145.212 71.3068L151.97 75.2088C152.598 75.5708 152.966 76.4668 152.796 77.2103C152.624 77.9538 151.977 78.2626 151.35 77.9006Z"
              fill="#D4ECFF"/>
        <path opacity="0.5"
              d="M165.7 86.1864L155.734 80.433C155.107 80.071 154.738 79.1751 154.91 78.4316C155.082 77.6888 155.729 77.3792 156.356 77.7412L166.322 83.4946C166.949 83.8566 167.318 84.7526 167.147 85.4961C166.975 86.2396 166.327 86.5484 165.7 86.1864Z"
              fill="#D4ECFF"/>
        <path opacity="0.5"
              d="M143.193 41.2332L138.971 38.7955C138.344 38.4335 137.975 37.5383 138.146 36.794C138.318 36.0505 138.966 35.7417 139.593 36.1037L143.815 38.5414C144.442 38.9033 144.811 39.7993 144.639 40.5428C144.467 41.2863 143.82 41.5952 143.193 41.2332Z"
              fill="#D4ECFF"/>
        <path opacity="0.5"
              d="M156.206 55.1386L143.306 47.691C142.679 47.329 142.31 46.433 142.481 45.6895C142.653 44.946 143.3 44.6372 143.927 44.9992L156.827 52.4468C157.454 52.8088 157.823 53.7047 157.652 54.4482C157.48 55.1917 156.832 55.5006 156.206 55.1386Z"
              fill="#D4ECFF"/>
        <path opacity="0.5"
              d="M144.924 61.407L140.702 58.9693C140.074 58.6073 139.706 57.7113 139.877 56.9678C140.049 56.2243 140.696 55.9155 141.324 56.2775L145.546 58.7152C146.173 59.0772 146.541 59.9731 146.37 60.7167C146.198 61.4602 145.551 61.769 144.924 61.407Z"
              fill="#D4ECFF"/>
        <path opacity="0.5"
              d="M167.873 100.223L156.596 93.7123C155.969 93.3503 155.6 92.4544 155.771 91.7109C155.943 90.9681 156.59 90.6585 157.217 91.0205L168.494 97.5315C169.121 97.8935 169.49 98.7895 169.319 99.533C169.146 100.276 168.499 100.585 167.873 100.223Z"
              fill="#D4ECFF"/>
        <path opacity="0.5"
              d="M140.808 71.8138L138.098 70.2494C137.47 69.8874 137.102 68.9915 137.272 68.248C137.444 67.5052 138.092 67.1956 138.719 67.5576L141.429 69.122C142.056 69.484 142.425 70.38 142.254 71.1243C142.082 71.867 141.435 72.1758 140.808 71.8138Z"
              fill="#D4ECFF"/>
        <path opacity="0.5"
              d="M138.86 83.4733L135.494 81.5297C134.867 81.1677 134.498 80.2717 134.669 79.5282C134.841 78.7855 135.488 78.4759 136.115 78.8379L139.481 80.7807C140.108 81.1427 140.477 82.0387 140.306 82.7822C140.135 83.5257 139.487 83.8345 138.86 83.4733Z"
              fill="#D4ECFF"/>
        <path opacity="0.5"
              d="M151.953 91.0319L143.079 85.9094C142.452 85.5474 142.083 84.6514 142.254 83.9071C142.426 83.1644 143.073 82.8548 143.7 83.2168L152.574 88.3401C153.201 88.702 153.57 89.598 153.399 90.3415C153.227 91.085 152.58 91.3939 151.953 91.0319Z"
              fill="#D4ECFF"/>
        <path opacity="0.5"
              d="M140.573 90.8526L134.193 87.1695C133.566 86.8075 133.197 85.9115 133.368 85.168C133.54 84.4245 134.187 84.1157 134.814 84.4777L141.194 88.1608C141.821 88.5228 142.19 89.4188 142.019 90.1631C141.846 90.905 141.199 91.2146 140.573 90.8526Z"
              fill="#D4ECFF"/>
        <path opacity="0.5"
              d="M177.548 105.838L173.452 103.473C172.824 103.111 172.456 102.215 172.627 101.471C172.798 100.728 173.445 100.418 174.073 100.78L178.17 103.146C178.797 103.508 179.166 104.404 178.995 105.148C178.822 105.891 178.175 106.2 177.548 105.838Z"
              fill="#D4ECFF"/>
        <path opacity="0.5"
              d="M160.629 70.4748L149.352 63.9638C148.725 63.6018 148.356 62.7058 148.527 61.9623C148.699 61.2188 149.346 60.9092 149.974 61.272L161.251 67.783C161.878 68.1449 162.246 69.0409 162.076 69.7844C161.904 70.5271 161.256 70.836 160.629 70.4748Z"
              fill="#D4ECFF"/>
    </g>
    <path d="M161.658 64.6776L142.003 53.3303C141.376 52.9683 141.007 52.0723 141.179 51.328C141.351 50.5853 141.998 50.2757 142.625 50.6377L162.279 61.985C162.906 62.347 163.275 63.243 163.104 63.9865C162.932 64.73 162.285 65.0388 161.658 64.6776Z"
          fill="#D4ECFF"/>
    <path d="M150.676 71.1208L139.4 64.6098C138.772 64.2478 138.404 63.3518 138.575 62.6083C138.746 61.8656 139.394 61.556 140.021 61.918L151.298 68.429C151.925 68.7909 152.294 69.6869 152.122 70.4304C151.951 71.1739 151.304 71.4828 150.676 71.1208Z"
          fill="#D4ECFF"/>
    <path d="M169.182 75.4132L165.085 73.0474C164.457 72.6854 164.089 71.7895 164.26 71.046C164.431 70.3024 165.079 69.9936 165.707 70.3556L169.803 72.7206C170.43 73.0826 170.799 73.9786 170.628 74.7221C170.456 75.4664 169.809 75.776 169.182 75.4132Z"
          fill="#D4ECFF"/>
    <path d="M209.626 73.1978L185.363 59.19C184.736 58.828 184.367 57.932 184.538 57.1885C184.71 56.445 185.358 56.1362 185.985 56.4982L210.248 70.5068C210.875 70.8688 211.243 71.7648 211.072 72.5083C210.9 73.251 210.253 73.5598 209.626 73.1978Z"
          fill="#D4ECFF"/>
    <path d="M150.352 83.7162L136.796 75.8902C136.169 75.5282 135.8 74.6322 135.971 73.8887C136.143 73.1452 136.79 72.8364 137.417 73.1984L150.973 81.0244C151.6 81.3864 151.968 82.2823 151.798 83.0259C151.626 83.7694 150.979 84.079 150.352 83.7162Z"
          fill="#D4ECFF"/>
    <path d="M150.239 38.9102L140.273 33.1568C139.646 32.7948 139.277 31.8988 139.448 31.1553C139.62 30.4118 140.268 30.103 140.895 30.465L150.861 36.2184C151.488 36.5804 151.857 37.4763 151.685 38.2198C151.513 38.9634 150.866 39.2722 150.239 38.9102Z"
          fill="#D4ECFF"/>
    <path d="M138.796 96.2194L127.254 89.5552C126.627 89.1932 126.258 88.2973 126.43 87.5538C126.601 86.8103 127.248 86.5014 127.876 86.8634L139.418 93.5269C140.045 93.8888 140.414 94.7848 140.243 95.5283C140.071 96.2726 139.423 96.5814 138.796 96.2194Z"
          fill="#D4ECFF"/>
    <path d="M217.42 25.6382C207.998 18.8731 198.214 13.2245 188.235 8.78843L168.467 0L162.132 2.46742C162.132 2.46742 164.913 3.95366 167.225 5.19363L157.84 44.4675C157.84 44.4675 148.994 76.4627 179.69 114.031C185.581 114.437 190.732 114.021 195.24 113.029C195.147 113.398 195.084 113.651 195.084 113.651L200.784 111.419C201.314 111.225 201.833 111.021 202.341 110.81L202.461 110.763C202.461 110.763 202.456 110.763 202.453 110.763C221.549 102.763 225.459 83.5093 225.459 83.5093L236.086 39.0409L217.42 25.6382Z"
          fill="#721BD5"/>
    <path d="M188.235 8.78843L168.467 0L162.132 2.46742C162.132 2.46742 164.913 3.95366 167.225 5.19363L163.82 19.4446L199.06 42.3582L229.753 41.5076L236.087 39.0401L217.421 25.6382C207.998 18.8739 198.214 13.2253 188.235 8.78843Z"
          fill="#721BD5"/>
    <path d="M197.553 19.3031L203.925 16.8693C198.765 13.8476 193.529 11.1425 188.234 8.78843L168.466 0L162.131 2.46742C162.131 2.46742 164.912 3.95366 167.224 5.19363L167.023 6.03565C179.354 11.4388 197.553 19.3031 197.553 19.3031Z"
          fill="#B45EF4"/>
    <path d="M198.902 14.04L187.036 18.4862L196.975 24.2248L208.754 19.8114C205.502 17.7576 202.218 15.8281 198.902 14.04Z"
          fill="#7E23DC"/>
    <path d="M219.125 85.9762L229.752 41.5079L211.085 28.106C201.663 21.3409 191.88 15.6923 181.901 11.2562L162.132 2.46777L151.505 46.9361C151.505 46.9361 142.66 78.9313 173.355 116.499C212.387 119.189 219.125 85.9762 219.125 85.9762Z"
          fill="#983BE9"/>
    <path d="M175.831 111.665C161.962 94.0564 157.331 78.0252 155.908 67.5456C154.317 55.834 156.268 48.3098 156.282 48.2566L165.567 9.41895L179.887 15.7853C189.54 20.0767 199.064 25.576 208.195 32.1324L224.158 43.5938L214.304 84.8254L214.267 84.992C214.253 85.0631 212.672 92.2738 207.052 99.096C199.797 107.902 189.295 112.127 175.831 111.665Z"
          fill="#721BD5"/>
    <path d="M187.711 63.4397C187.4 64.3935 187.818 65.5537 188.643 66.0306C189.469 66.5075 190.392 66.1205 190.703 65.1675C191.014 64.2129 190.596 63.0527 189.771 62.5758C188.944 62.0981 188.022 62.4851 187.711 63.4397Z"
          fill="#FF2C9C"/>
    <path d="M182.897 60.66C182.586 61.6139 183.004 62.7741 183.829 63.251C184.655 63.7279 185.577 63.3409 185.889 62.3871C186.2 61.4333 185.782 60.2723 184.957 59.7961C184.13 59.3192 183.208 59.7054 182.897 60.66Z"
          fill="#FF2C9C"/>
    <path d="M178.083 57.8817C177.772 58.8355 178.19 59.9958 179.016 60.4727C179.842 60.9496 180.764 60.5626 181.076 59.6088C181.386 58.6549 180.969 57.4947 180.143 57.0178C179.317 56.5409 178.395 56.9271 178.083 57.8817Z"
          fill="#FF2C9C"/>
    <path d="M225.552 141.081C225.241 142.036 225.659 143.196 226.484 143.672C227.312 144.15 228.233 143.763 228.545 142.809C228.855 141.855 228.437 140.695 227.612 140.218C226.786 139.741 225.863 140.127 225.552 141.081Z"
          fill="#D4ECFF"/>
    <path d="M220.739 138.302C220.428 139.256 220.845 140.417 221.671 140.893C222.498 141.37 223.419 140.983 223.731 140.03C224.041 139.075 223.624 137.916 222.798 137.439C221.973 136.962 221.049 137.348 220.739 138.302Z"
          fill="#D4ECFF"/>
    <path d="M215.925 135.524C215.613 136.478 216.031 137.638 216.856 138.115C217.684 138.592 218.605 138.205 218.917 137.251C219.228 136.297 218.809 135.137 217.984 134.661C217.158 134.184 216.236 134.569 215.925 135.524Z"
          fill="#D4ECFF"/>
    <path opacity="0.5"
          d="M25.3629 237.024C20.1904 240.009 11.8039 240.009 6.63134 237.023C1.45882 234.037 1.45882 229.195 6.63134 226.208C11.8039 223.222 20.1904 223.222 25.3629 226.209C30.5347 229.195 30.5347 234.037 25.3629 237.024Z"
          fill="#C4D9E8"/>
    <path d="M8.40088 137.616C8.40088 137.616 8.74644 144.739 9.28903 149.525C9.83083 154.312 21.3588 145.849 21.3588 145.849V140.399L8.40088 137.616Z"
          fill="#6614CF"/>
    <path d="M14.5411 226.236C14.7147 226.668 17.7012 230.305 20.6886 231.214C21.9872 231.61 22.8605 231.66 23.4328 231.592C24.0066 231.524 24.3616 230.932 24.1677 230.388C23.654 228.94 22.1803 225.927 18.4369 224.07C13.3723 221.561 14.5411 226.236 14.5411 226.236Z"
          fill="#173D7A"/>
    <path d="M13.5458 227.632C13.5458 227.632 14.6708 230.273 15.0172 232.481C15.229 233.827 14.4894 235.576 13.8812 236.736C13.5036 237.455 12.5458 237.617 11.9438 237.071C10.9673 236.185 9.72503 234.646 9.51941 232.437C9.17306 228.713 9.51941 228.064 9.51941 228.064L13.5458 227.632Z"
          fill="#173D7A"/>
    <path d="M6.3499 182.636C6.3499 182.636 5.95978 187.331 6.3499 192.526C6.74003 197.72 8.13401 222.015 8.39358 227.859C8.39358 227.859 8.26379 229.628 11.6889 229.239C15.1141 228.849 14.8381 226.885 14.8381 226.885C14.8381 226.885 19.6486 226.82 19.8003 223.984C19.952 221.148 24.7273 190.124 24.7273 178.971L6.3499 182.636Z"
          fill="#FDD762"/>
    <path d="M26.5068 158.354L28.864 162.004L36.9652 171.79C36.9652 171.79 36.6869 172.698 35.6784 172.935C34.8903 173.121 28.0767 166.62 25.1339 163.768C24.3521 163.009 24.2223 161.803 24.8236 160.896L26.5068 158.354Z"
          fill="#FFC2B0"/>
    <path d="M21.9087 143.37C21.9087 143.37 25.6528 143.273 26.9561 148.683C28.2594 154.094 29.2789 160.87 28.1453 161.433C24.7428 163.122 22.5897 161.145 22.5897 161.145L21.9087 143.37Z"
          fill="#8A2AE3"/>
    <path d="M23.0291 143.599C22.3903 143.332 21.6742 143.297 21.0089 143.488C17.819 144.404 5.82671 147.923 3.84949 149.613C1.56579 151.565 7.27385 162.533 7.19176 166.129C7.10967 169.725 6.70391 173.964 6.38649 177.874C6.06907 181.783 5.63829 183.926 8.83671 185.589C12.0344 187.251 17.4938 187.328 21.5804 184.213C25.6677 181.099 24.9258 178.969 24.7561 176.708C24.5865 174.447 23.194 164.67 23.3152 161.894C23.3152 161.894 24.7553 160.834 25.8217 159.014C26.8881 157.195 25.0047 153.851 24.2221 151.676C23.4403 149.503 24.6631 147.017 24.4207 145.243C24.2964 144.331 23.7124 143.884 23.0291 143.599Z"
          fill="#983BE9"/>
    <path d="M15.155 151.488C17.6434 151.17 19.4554 149.309 19.2022 147.334C18.949 145.358 16.7266 144.015 14.2382 144.334C11.7499 144.653 9.93789 146.513 10.1911 148.488C10.4442 150.464 12.6667 151.807 15.155 151.488Z"
          fill="white"/>
    <path d="M15.0182 150.468C16.7969 150.24 18.0923 148.911 17.9115 147.5C17.7308 146.088 16.1423 145.128 14.3637 145.356C12.585 145.584 11.2896 146.913 11.4703 148.325C11.6511 149.736 13.2395 150.696 15.0182 150.468Z"
          fill="#FFC2B0"/>
    <path d="M16.1428 142.868C16.1428 142.868 13.978 141.088 13.5527 141.989C13.1273 142.891 12.7771 146.761 12.7771 146.761L17.0763 147.917L16.4243 143.995C16.4235 143.995 17.2843 143.266 16.1428 142.868Z"
          fill="#FFC2B0"/>
    <path d="M16.4539 144.668C19.9993 144.668 22.8735 141.794 22.8735 138.249C22.8735 134.703 19.9993 131.829 16.4539 131.829C12.9085 131.829 10.0344 134.703 10.0344 138.249C10.0344 141.794 12.9085 144.668 16.4539 144.668Z"
          fill="#FFC2B0"/>
    <path d="M13.2533 143.111C13.2149 143.314 13.1782 143.53 13.1438 143.752C13.5754 145.985 16.9176 146.963 16.9176 146.963L16.4243 143.995C16.4243 143.995 16.8293 143.652 16.7151 143.308C15.3931 142.892 13.7286 142.522 13.2533 143.111Z"
          fill="#EA9C92"/>
    <path d="M16.4539 144.668C19.9993 144.668 22.8735 141.794 22.8735 138.249C22.8735 134.703 19.9993 131.829 16.4539 131.829C12.9085 131.829 10.0344 134.703 10.0344 138.249C10.0344 141.794 12.9085 144.668 16.4539 144.668Z"
          fill="#FFC2B0"/>
    <path d="M0.637695 165.422L1.35619 182.6L3.86739 182.859L5.50218 167.394L0.637695 165.422Z" fill="#FFC2B0"/>
    <path d="M8.89074 163.986C8.05966 160.317 6.41785 152.213 6.41785 152.213L5.71655 160.274C6.52652 162.664 7.22156 164.858 7.19263 166.13C7.14416 168.24 6.98388 170.574 6.79624 172.931V172.939C6.79546 172.939 9.72181 167.654 8.89074 163.986Z"
          fill="#8A2AE3"/>
    <path d="M4.32957 149.261C4.32957 149.261 2.32107 150.028 1.18509 156.196C0.0483216 162.365 -0.801508 168.544 1.22497 169.34C3.25066 170.137 4.94408 170.735 5.53983 169.085C6.13557 167.436 6.50459 159.486 6.57965 156.627C6.65392 153.768 6.76259 149.826 4.32957 149.261Z"
          fill="#B45EF4"/>
    <path d="M36.3648 171.074C36.3648 171.074 37.4523 171.474 38.2381 172.33C38.8831 173.032 39.2364 173.628 39.5179 174.048C40.1433 174.981 40.6711 176.998 40.2895 177.25C39.908 177.502 37.7267 173.873 37.3749 174.717C37.0231 175.561 37.3781 176.341 36.9269 176.354C36.4758 176.367 34.9083 172.707 33.6754 171.572C32.4424 170.438 36.3648 171.074 36.3648 171.074Z"
          fill="#FFC2B0"/>
    <path d="M14.8389 226.884C14.8389 226.884 15.4346 226.875 16.2133 226.742L17.1554 188.978L14.8389 226.884Z"
          fill="#D8892B"/>
    <path d="M1.37684 182.454C1.37684 182.454 0.713079 186.464 0.81237 187.748C0.912443 189.032 1.59966 191.151 2.12113 191.106C2.64261 191.06 2.13833 185.942 3.05463 186.451C3.97092 186.961 4.06708 187.836 4.48223 187.527C4.89738 187.218 3.75826 182.843 4.0616 180.945C4.36573 179.048 1.37684 182.454 1.37684 182.454Z"
          fill="#FFC2B0"/>
    <path d="M18.9192 138.808C22.1395 139.952 22.7666 139.254 22.7971 139.216C22.8268 139.023 22.8502 138.826 22.8619 138.626C22.9042 137.915 22.8236 137.226 22.6477 136.575L14.2932 135.447C14.294 135.447 15.6129 137.634 18.9192 138.808Z"
          fill="#EA9C92"/>
    <path d="M23.0934 132.231C22.3343 131.58 19.5956 128.364 14.6896 129.123C11.6241 129.598 9.03864 131.689 8.46635 136.46C8.08013 139.675 9.2599 142.842 11.4334 145.182C11.5514 145.128 11.6734 145.078 11.782 145.006C13.0111 144.197 13.1432 143.752 13.1432 143.749L13.4145 141.314C13.4059 140.969 13.1471 140.66 12.8023 140.639C12.5357 140.623 12.2113 140.494 11.9032 140.091C11.1988 139.169 11.524 137.733 12.9329 137.679C13.6694 137.651 13.9539 137.252 14.0587 136.879C14.1494 136.553 14.4926 136.373 14.81 136.488C16.4135 137.068 20.3641 138.319 22.9066 137.598C26.1605 136.676 23.8526 132.881 23.0934 132.231Z"
          fill="#6614CF"/>
    <path d="M19.4353 141.708L21.3992 141.169C21.3992 141.169 20.4618 142.643 19.0928 143.02C17.7247 143.396 17.5112 142.237 17.5112 142.237L19.4353 141.708Z"
          fill="white"/>
    <path opacity="0.5"
          d="M56.602 262.504L37.1042 251.248C35.9072 250.557 36.0574 249.35 37.4396 248.552L56.2666 237.682C57.6489 236.884 59.7387 236.798 60.9356 237.489L80.4334 248.746C81.6296 249.437 81.4795 250.644 80.098 251.442L61.271 262.311C59.8888 263.109 57.799 263.196 56.602 262.504Z"
          fill="#C4D9E8"/>
    <path d="M86.901 240.171V231.747L68.0106 231.736L61.4809 227.966C59.9821 227.101 57.3646 227.209 55.6344 228.209L49.5425 231.725L30.635 231.715V240.379C30.5928 240.965 30.9188 241.53 31.6388 241.945L56.0551 256.042C57.5538 256.907 60.1713 256.798 61.9015 255.799L85.4773 242.188C86.4756 241.612 86.9573 240.866 86.901 240.171Z"
          fill="#721BD5"/>
    <path d="M58.7689 227.386C57.6721 227.412 56.5345 227.689 55.6354 228.208L49.5435 231.725L30.6359 231.715V240.379C30.5937 240.964 30.9197 241.53 31.6398 241.945L56.056 256.042C56.7761 256.457 57.7549 256.645 58.7689 256.621V227.386Z"
          fill="#983BE9"/>
    <path d="M32.7758 231.717L30.6359 231.716V240.38C30.5937 240.966 30.9197 241.531 31.6398 241.946L32.7758 242.602V231.717Z"
          fill="#B45EF4"/>
    <path d="M56.4316 256.227C57.724 256.78 59.5933 256.75 61.1054 256.174V246.336H56.4316V256.227Z" fill="#7E23DC"/>
    <path d="M56.0558 247.409L31.6396 233.313C30.1408 232.448 30.3292 230.937 32.0594 229.937L55.6352 216.326C57.3654 215.328 59.9829 215.219 61.4816 216.084L85.8971 230.18C87.3958 231.045 87.2082 232.557 85.478 233.556L61.9023 247.166C60.1721 248.166 57.5546 248.275 56.0558 247.409Z"
          fill="#8A2AE3"/>
    <path d="M56.4953 244.872L36.0343 233.06C34.7787 232.334 34.9358 231.068 36.3861 230.231L56.1427 218.824C57.5929 217.988 59.7867 217.896 61.0423 218.621L81.5033 230.434C82.7581 231.159 82.601 232.425 81.1515 233.263L61.3942 244.669C59.9447 245.507 57.7509 245.598 56.4953 244.872Z"
          fill="#6614CF"/>
    <path d="M77.921 242.393C77.921 243.022 77.4801 243.786 76.9343 244.101C76.3902 244.416 75.9485 244.161 75.9485 243.531C75.9485 242.903 76.3894 242.138 76.9343 241.823C77.4793 241.509 77.921 241.764 77.921 242.393Z"
          fill="#FF2C9C"/>
    <path d="M81.0934 240.561C81.0934 241.191 80.6517 241.955 80.1068 242.27C79.5619 242.586 79.1201 242.33 79.1201 241.7C79.1201 241.071 79.5619 240.307 80.1068 239.992C80.6517 239.677 81.0934 239.934 81.0934 240.561Z"
          fill="#FF2C9C"/>
    <path d="M84.2662 238.73C84.2662 239.359 83.8253 240.123 83.2804 240.438C82.7354 240.753 82.2937 240.498 82.2937 239.869C82.2937 239.24 82.7354 238.475 83.2804 238.161C83.8253 237.847 84.2662 238.102 84.2662 238.73Z"
          fill="#FF2C9C"/>
    <path d="M86.901 226.509V218.085L68.0106 218.074L61.4809 214.305C59.9821 213.44 57.3646 213.548 55.6344 214.548L49.5425 218.065L30.635 218.054V226.718C30.5928 227.304 30.9188 227.869 31.6388 228.284L56.0551 242.38C57.5538 243.246 60.1713 243.138 61.9015 242.138L85.4773 228.527C86.4756 227.95 86.9573 227.204 86.901 226.509Z"
          fill="#721BD5"/>
    <path d="M58.7689 213.724C57.6721 213.75 56.5345 214.027 55.6354 214.546L49.5435 218.064L30.6359 218.053V226.717C30.5937 227.302 30.9197 227.868 31.6398 228.283L56.056 242.379C56.7761 242.795 57.7549 242.983 58.7689 242.959V213.724Z"
          fill="#983BE9"/>
    <path d="M32.7758 218.054L30.6359 218.053V226.717C30.5937 227.302 30.9197 227.868 31.6398 228.283L32.7758 228.939V218.054Z"
          fill="#B45EF4"/>
    <path d="M56.4316 242.565C57.724 243.118 59.5933 243.088 61.1054 242.511V232.674H56.4316V242.565Z" fill="#7E23DC"/>
    <path d="M56.0558 233.748L31.6396 219.651C30.1408 218.787 30.3292 217.275 32.0594 216.276L55.6352 202.666C57.3654 201.666 59.9829 201.558 61.4816 202.422L85.8971 216.519C87.3958 217.383 87.2082 218.895 85.478 219.894L61.9023 233.505C60.1721 234.504 57.5546 234.613 56.0558 233.748Z"
          fill="#8A2AE3"/>
    <path d="M56.4953 231.21L36.0343 219.397C34.7787 218.672 34.9358 217.406 36.3861 216.569L56.1427 205.162C57.5929 204.326 59.7867 204.234 61.0423 204.959L81.5033 216.772C82.7581 217.497 82.601 218.763 81.1515 219.6L61.3942 231.007C59.9447 231.845 57.7509 231.935 56.4953 231.21Z"
          fill="#6614CF"/>
    <path d="M77.921 228.732C77.921 229.362 77.4801 230.126 76.9343 230.441C76.3902 230.755 75.9485 230.5 75.9485 229.871C75.9485 229.241 76.3894 228.477 76.9343 228.162C77.4793 227.849 77.921 228.104 77.921 228.732Z"
          fill="#FF2C9C"/>
    <path d="M81.0934 226.9C81.0934 227.529 80.6517 228.293 80.1068 228.608C79.5626 228.922 79.1201 228.668 79.1201 228.039C79.1201 227.409 79.5619 226.645 80.1068 226.33C80.6517 226.015 81.0934 226.271 81.0934 226.9Z"
          fill="#FF2C9C"/>
    <path d="M84.2662 225.068C84.2662 225.698 83.8253 226.462 83.2804 226.777C82.7362 227.091 82.2937 226.836 82.2937 226.207C82.2937 225.578 82.7354 224.813 83.2804 224.498C83.8253 224.185 84.2662 224.44 84.2662 225.068Z"
          fill="#FF2C9C"/>
    <path d="M86.9005 212.846V204.422L68.0101 204.411L61.4804 200.641C59.9816 199.777 57.3641 199.885 55.634 200.884L49.542 204.401L30.6345 204.391V213.055C30.5923 213.641 30.9183 214.206 31.6383 214.621L56.0546 228.718C57.5533 229.583 60.1708 229.474 61.901 228.475L85.4768 214.863C86.4752 214.288 86.9568 213.541 86.9005 212.846Z"
          fill="#721BD5"/>
    <path d="M58.7687 200.062C57.6718 200.088 56.5343 200.365 55.6352 200.884L49.5432 204.401L30.6357 204.39V213.055C30.5935 213.64 30.9195 214.205 31.6396 214.621L56.0558 228.718C56.7758 229.133 57.7547 229.321 58.7687 229.297V200.062Z"
          fill="#983BE9"/>
    <path d="M32.7755 204.39L30.6357 204.39V213.054C30.5935 213.639 30.9195 214.205 31.6396 214.62L32.7755 215.276V204.39Z"
          fill="#B45EF4"/>
    <path d="M56.4316 228.901C57.724 229.454 59.5933 229.424 61.1054 228.847V219.01H56.4316V228.901Z" fill="#7E23DC"/>
    <path d="M56.0558 220.084L31.6396 205.987C30.1408 205.123 30.3292 203.611 32.0594 202.612L55.6352 189.001C57.3654 188.002 59.9829 187.894 61.4816 188.758L85.8971 202.855C87.3958 203.72 87.2082 205.231 85.478 206.23L61.9023 219.841C60.1721 220.841 57.5546 220.949 56.0558 220.084Z"
          fill="#8A2AE3"/>
    <path d="M85.4779 204.572L61.9021 218.184C60.172 219.182 57.5544 219.291 56.0557 218.426L31.6395 204.33C31.3056 204.137 31.0601 203.911 30.8913 203.666C30.3768 204.495 30.6098 205.393 31.6395 205.988L56.0557 220.084C57.5544 220.949 60.172 220.841 61.9021 219.841L85.4779 206.23C86.8226 205.454 87.2307 204.369 86.6451 203.519C86.4098 203.896 86.0197 204.26 85.4779 204.572Z"
          fill="#B45EF4"/>
    <path d="M77.9208 215.068C77.9208 215.697 77.4798 216.461 76.9341 216.776C76.39 217.09 75.9482 216.836 75.9482 216.207C75.9482 215.578 76.3892 214.813 76.9341 214.498C77.479 214.184 77.9208 214.438 77.9208 215.068Z"
          fill="#FF2C9C"/>
    <path d="M81.0932 213.235C81.0932 213.865 80.6515 214.629 80.1065 214.944C79.5616 215.259 79.1199 215.004 79.1199 214.374C79.1199 213.745 79.5616 212.981 80.1065 212.666C80.6515 212.351 81.0932 212.607 81.0932 213.235Z"
          fill="#FF2C9C"/>
    <path d="M84.266 211.404C84.266 212.033 83.825 212.797 83.2801 213.112C82.7352 213.427 82.2935 213.172 82.2935 212.542C82.2935 211.914 82.7352 211.149 83.2801 210.835C83.825 210.52 84.266 210.776 84.266 211.404Z"
          fill="#FF2C9C"/>
    <path d="M57.4989 211.718L46.0734 205.122C45.3721 204.716 45.4605 204.01 46.2697 203.542L57.3019 197.173C58.1119 196.705 59.337 196.655 60.0375 197.059L71.463 203.656C72.1635 204.061 72.076 204.768 71.2668 205.236L60.2345 211.605C59.4253 212.072 58.2002 212.123 57.4989 211.718Z"
          fill="#6614CF"/>
    <path d="M58.5934 206.195L57.0126 205.283C56.9156 205.227 56.9281 205.13 57.0399 205.065L58.5668 204.183C58.6786 204.119 58.8483 204.112 58.9452 204.167L60.5261 205.08C60.623 205.136 60.6105 205.234 60.4987 205.299L58.9718 206.18C58.8592 206.245 58.6904 206.252 58.5934 206.195Z"
          fill="#FF2C9C"/>
    <path d="M46.0735 205.122L46.1064 205.14C46.1595 205.102 46.2088 205.063 46.2705 205.027L57.3028 198.658C58.1128 198.19 59.3379 198.14 60.0384 198.544L71.4318 205.122C72.0776 204.659 72.1112 204.03 71.4639 203.655L60.0384 197.058C59.3379 196.654 58.1128 196.704 57.3028 197.173L46.2705 203.541C45.4606 204.01 45.373 204.717 46.0735 205.122Z"
          fill="#B45EF4"/>
    <path d="M48.759 235.528L38.8744 229.821C38.2654 229.469 37.7705 228.525 37.7705 227.713C37.7705 226.9 38.2646 226.526 38.8744 226.879L48.759 232.586C49.368 232.937 49.8621 233.882 49.8621 234.694C49.8621 235.506 49.368 235.879 48.759 235.528Z"
          fill="#6614CF"/>
    <path d="M49.6424 234.983L39.7579 229.276C39.1481 228.924 38.6547 227.98 38.6547 227.168C38.6547 227.031 38.6727 226.912 38.6993 226.801C38.1731 226.609 37.7705 226.98 37.7705 227.713C37.7705 228.525 38.2646 229.469 38.8736 229.82L48.7582 235.528C49.2648 235.82 49.687 235.606 49.8168 235.06C49.7597 235.039 49.7026 235.018 49.6424 234.983Z"
          fill="#B45EF4"/>
    <path d="M53.4319 157.24L50.8839 155.786L50.8847 155.79C50.6556 155.604 50.3351 155.589 49.9786 155.795L32.526 165.872C31.831 166.273 31.2681 167.35 31.2681 168.275V197.482C31.2681 199.073 32.1187 200.543 33.4994 201.336L33.888 201.559L34.142 198.395L51.2373 188.525V157.704L51.5719 159.524L53.4319 157.24Z"
          fill="#983BE9"/>
    <path d="M50.8839 155.786L50.8847 155.79C50.6557 155.604 50.3351 155.589 49.9786 155.795L32.5261 165.871C32.1187 166.107 31.7599 166.576 31.53 167.11L51.2374 178.488V157.705L51.572 159.525L53.4319 157.241L50.8839 155.786Z"
          fill="#8A2AE3"/>
    <path d="M35.1771 170.342L37.1466 169.204L32.0554 166.265C31.6332 166.737 31.3298 167.436 31.2798 168.092L35.1771 170.342Z"
          fill="#B45EF4"/>
    <path d="M53.8574 190.03L33.8882 201.559V169.78C33.8882 168.854 34.4519 167.777 35.1469 167.376L52.5995 157.299C53.2945 156.898 53.8582 157.324 53.8582 158.251V190.03H53.8574Z"
          fill="#721BD5"/>
    <path d="M41.8425 197.839C41.8425 198.4 41.4492 198.627 40.9637 198.346C40.4782 198.065 40.085 197.385 40.085 196.825C40.085 196.264 40.4782 196.037 40.9637 196.317C41.4492 196.598 41.8425 197.279 41.8425 197.839Z"
          fill="#B45EF4"/>
    <path d="M37.4058 197.956L40.3227 196.269L41.619 198.386L38.6926 200.078L37.4058 197.956Z" fill="#B45EF4"/>
    <path d="M38.9436 199.513C38.9436 200.073 38.5503 200.3 38.0648 200.019C37.5793 199.739 37.186 199.059 37.186 198.498C37.186 197.938 37.5793 197.711 38.0648 197.991C38.5503 198.272 38.9436 198.953 38.9436 199.513Z"
          fill="#983BE9"/>
    <path d="M38.5182 199.267C38.5182 199.556 38.3157 199.673 38.0648 199.529C37.8138 199.384 37.6113 199.033 37.6113 198.744C37.6113 198.455 37.8138 198.337 38.0648 198.482C38.3157 198.627 38.5182 198.978 38.5182 199.267Z"
          fill="#721BD5"/>
    <path d="M52.0583 192.069C52.0583 192.63 51.6651 192.857 51.1796 192.576C50.6941 192.297 50.3008 191.615 50.3008 191.055C50.3008 190.495 50.6941 190.267 51.1796 190.548C51.6651 190.829 52.0583 191.509 52.0583 192.069Z"
          fill="#B45EF4"/>
    <path d="M47.6216 192.185L50.5385 190.499L51.8348 192.615L48.9085 194.308L47.6216 192.185Z" fill="#B45EF4"/>
    <path d="M49.1594 193.743C49.1594 194.304 48.7661 194.531 48.2806 194.25C47.7951 193.97 47.4019 193.289 47.4019 192.729C47.4019 192.168 47.7951 191.941 48.2806 192.222C48.7661 192.501 49.1594 193.183 49.1594 193.743Z"
          fill="#983BE9"/>
    <path d="M48.7341 193.498C48.7341 193.787 48.5316 193.905 48.2806 193.76C48.0304 193.615 47.8271 193.264 47.8271 192.975C47.8271 192.686 48.0304 192.569 48.2806 192.713C48.5316 192.858 48.7341 193.209 48.7341 193.498Z"
          fill="#721BD5"/>
    <path opacity="0.5"
          d="M222.397 241.387L207.913 233.025C207.024 232.512 207.136 231.615 208.162 231.023L222.148 222.948C223.174 222.356 224.727 222.291 225.616 222.804L240.1 231.166C240.989 231.68 240.877 232.576 239.851 233.169L225.865 241.244C224.839 241.836 223.286 241.9 222.397 241.387Z"
          fill="#C4D9E8"/>
    <path d="M252.29 216.292V207.868L233.4 207.857L226.87 204.087C225.372 203.223 222.754 203.331 221.023 204.33L214.932 207.848L196.024 207.837V216.501C195.981 217.086 196.307 217.652 197.028 218.067L221.443 232.164C222.942 233.029 225.56 232.921 227.29 231.921L250.866 218.309C251.865 217.734 252.346 216.987 252.29 216.292Z"
          fill="#721BD5"/>
    <path d="M224.158 203.509C223.062 203.535 221.923 203.811 221.024 204.33L214.932 207.848L196.025 207.837V216.501C195.982 217.087 196.308 217.652 197.029 218.067L221.444 232.164C222.164 232.579 223.143 232.768 224.157 232.743V203.509H224.158Z"
          fill="#983BE9"/>
    <path d="M198.165 207.838L196.025 207.837V216.501C195.982 217.087 196.308 217.652 197.029 218.067L198.165 218.724V207.838Z"
          fill="#B45EF4"/>
    <path d="M221.821 232.348C223.113 232.901 224.983 232.871 226.494 232.295V222.457H221.821V232.348Z" fill="#7E23DC"/>
    <path d="M221.445 223.532L197.03 209.435C195.531 208.57 195.718 207.059 197.449 206.06L221.024 192.449C222.755 191.45 225.373 191.341 226.871 192.206L251.287 206.302C252.785 207.167 252.597 208.679 250.867 209.678L227.291 223.288C225.561 224.288 222.943 224.397 221.445 223.532Z"
          fill="#8A2AE3"/>
    <path d="M243.31 218.515C243.31 219.144 242.869 219.908 242.323 220.223C241.779 220.538 241.337 220.283 241.337 219.654C241.337 219.025 241.778 218.26 242.323 217.945C242.868 217.631 243.31 217.886 243.31 218.515Z"
          fill="#FF2C9C"/>
    <path d="M246.482 216.684C246.482 217.313 246.04 218.077 245.495 218.392C244.951 218.708 244.509 218.452 244.509 217.823C244.509 217.193 244.951 216.429 245.495 216.114C246.04 215.799 246.482 216.056 246.482 216.684Z"
          fill="#FF2C9C"/>
    <path d="M249.656 214.852C249.656 215.482 249.214 216.245 248.669 216.56C248.124 216.875 247.682 216.621 247.682 215.991C247.682 215.362 248.123 214.598 248.669 214.283C249.214 213.969 249.656 214.224 249.656 214.852Z"
          fill="#FF2C9C"/>
    <path d="M211.827 217.98L221.445 223.533C222.943 224.398 225.561 224.291 227.292 223.291L244.402 213.412L244.511 213.282L230.706 205.635L211.827 217.98Z"
          fill="#721BD5"/>
    <path d="M215.781 220.263V228.896L212.204 226.861L210.564 218.487L213.365 218.867L215.781 220.263Z" fill="#721BD5"/>
    <path d="M204.163 222.187L205.025 222.686L206.721 214.594L205.662 214.138L202.421 215.246L204.163 222.187Z"
          fill="#721BD5"/>
    <path d="M101.248 157.269C92.9914 152.503 79.6066 152.503 71.3514 157.269C63.0962 162.036 63.0954 169.764 71.3514 174.53C79.6082 179.297 92.9929 179.297 101.248 174.53C109.503 169.764 109.503 162.036 101.248 157.269ZM85.7869 166.063C83.6635 167.288 80.2211 167.288 78.0985 166.063C75.9751 164.837 75.9751 162.85 78.0977 161.623C80.2211 160.398 83.6635 160.398 85.7869 161.623C87.9103 162.85 87.9103 164.837 85.7869 166.063Z"
          fill="white"/>
    <path d="M105.708 170.702C104.605 171.799 103.244 172.834 101.617 173.773C99.9901 174.712 98.1989 175.499 96.2983 176.135L100.34 178.468L106.43 178.781L109.443 180.52L108.213 181.23L110.494 182.547L112.953 181.128L116.938 183.428L112.935 185.74L115.877 187.439L118.731 189.086L122.288 187.033L127.559 190.076L125.546 191.237L128.932 193.192L130.944 192.031L132.533 192.948L130.932 196.131L136.055 199.088H154.875L105.708 170.702Z"
          fill="#B2D3EA"/>
    <path d="M107.439 164.223V158.507L105.756 159.458C104.725 158.058 103.227 156.744 101.248 155.601C92.9911 150.835 79.6064 150.835 71.3512 155.601C69.0612 156.923 67.4092 158.474 66.3897 160.125L65.1599 158.507V164.223C65.1552 167.35 67.2192 170.477 71.3512 172.863C79.6079 177.63 92.9927 177.63 101.248 172.863C105.38 170.478 107.444 167.35 107.439 164.223ZM85.7147 160.498C83.5913 161.724 80.1497 161.724 78.0263 160.498C75.9029 159.272 75.9029 157.285 78.0263 156.059C80.1497 154.832 83.5913 154.833 85.7147 156.059C87.8382 157.285 87.8374 159.272 85.7147 160.498Z"
          fill="#E8A200"/>
    <path d="M84.5295 168.728L75.4072 164.231L67.3005 158.876C66.9558 159.284 66.6508 159.701 66.3897 160.124L65.1599 158.507V164.223C65.1552 167.349 67.2192 170.476 71.3512 172.863C75.0288 174.986 79.7236 176.16 84.5295 176.393V168.728Z"
          fill="#FDD762"/>
    <path d="M101.248 149.877C92.9914 145.11 79.6066 145.11 71.3514 149.877C63.0962 154.644 63.0954 162.371 71.3514 167.138C79.6082 171.905 92.9929 171.905 101.248 167.138C109.503 162.371 109.503 154.644 101.248 149.877ZM85.7869 158.671C83.6635 159.896 80.2211 159.896 78.0985 158.67C75.9751 157.445 75.9751 155.457 78.0977 154.231C80.2211 153.006 83.6635 153.006 85.7869 154.231C87.9103 155.457 87.9103 157.445 85.7869 158.671Z"
          fill="#FDD762"/>
    <path d="M89.9345 152.896H78.4613C77.4121 153.137 76.391 153.429 75.4075 153.771V163.495H89.9345V152.896ZM85.715 160.498C83.5916 161.724 80.15 161.724 78.0266 160.498C75.9031 159.272 75.9031 157.285 78.0266 156.059C80.15 154.832 83.5916 154.833 85.715 156.059C87.8384 157.285 87.8376 159.272 85.715 160.498Z"
          fill="#E8A200"/>
    <path d="M99.4747 150.901C92.1975 146.7 80.3999 146.7 73.1227 150.901C65.8463 155.102 65.8463 161.914 73.1235 166.115C80.4007 170.316 92.1983 170.316 99.4755 166.115C106.752 161.914 106.752 155.102 99.4747 150.901ZM85.7866 158.671C83.6632 159.896 80.2209 159.896 78.0982 158.67C75.9748 157.445 75.9748 155.458 78.0974 154.231C80.2209 153.006 83.6632 153.006 85.7866 154.231C87.9101 155.458 87.9101 157.445 85.7866 158.671Z"
          fill="#F2B42A"/>
    <path d="M73.1227 152.478C80.3998 148.277 92.1975 148.277 99.4747 152.478C102.765 154.379 104.563 156.812 104.877 159.297C105.259 156.286 103.46 153.202 99.4747 150.901C92.1975 146.7 80.3998 146.7 73.1227 150.901C69.1362 153.202 67.3403 156.287 67.7211 159.296C68.0354 156.812 69.8328 154.378 73.1227 152.478Z"
          fill="#E8A200"/>
    <path d="M105.708 168.991C104.605 170.088 103.244 171.123 101.617 172.062C99.9901 173.002 98.1989 173.788 96.2983 174.424L100.34 176.757L106.43 177.07L109.443 178.81L108.213 179.52L110.494 180.837L112.953 179.418L116.938 181.718L112.935 184.029L115.877 185.728L118.731 187.376L122.288 185.322L127.559 188.365L125.546 189.527L128.932 191.482L130.944 190.32L132.533 191.238L130.932 194.42L136.055 197.378H154.875L105.708 168.991Z"
          fill="#F2B42A"/>
    <path d="M105.708 164.86C104.605 165.957 103.244 166.992 101.617 167.931C99.9901 168.871 98.1989 169.657 96.2983 170.293L100.34 172.626L106.43 172.939L109.443 174.678L108.213 175.388L110.494 176.706L112.953 175.286L116.938 177.587L112.935 179.898L115.877 181.598L118.731 183.245L122.288 181.191L127.559 184.235L125.546 185.396L128.932 187.351L130.944 186.189L132.533 187.107L130.932 190.289L136.055 193.246L154.875 193.247L105.708 164.86Z"
          fill="#FDD762"/>
    <path d="M154.875 193.246H136.054V197.376H154.875V193.246Z" fill="#E8A200"/>
    <path d="M128.931 191.482V187.352L130.943 186.189V190.321L128.931 191.482Z" fill="#E8A200"/>
    <path d="M125.545 185.396V189.527L128.931 191.481V187.351L125.545 185.396Z" fill="#EEAD00"/>
    <path d="M122.288 181.191V185.322L118.73 187.376V183.245L122.288 181.191Z" fill="#E8A200"/>
    <path d="M112.934 179.898V184.029L118.73 187.376V183.245L112.934 179.898Z" fill="#EEAD00"/>
    <path d="M130.943 190.32L130.932 194.42L136.054 197.378V193.247L130.943 190.32Z" fill="#EEAD00"/>
    <path d="M110.493 176.706V180.836L108.212 179.52V175.389L110.493 176.706Z" fill="#EEAD00"/>
    <path d="M100.339 172.626V176.756L106.43 177.069V172.939L100.339 172.626Z" fill="#E8A200"/>
    <path d="M142.031 190.321L106.034 169.52L108.034 168.365L146.01 190.308L142.031 190.321Z" fill="#E8A200"/>
    <path d="M108.034 169.366L144.288 190.313L146.01 190.308L108.034 168.365L106.034 169.52L106.901 170.02L108.034 169.366Z"
          fill="#F2B42A"/>
    <path d="M100.34 176.757V172.627L96.2983 170.293V174.424L100.34 176.757Z" fill="#E8A200"/>
    <path d="M112.953 175.285V179.416L110.493 180.836V176.706L112.953 175.285Z" fill="#E8A200"/>
    <path d="M99.4748 150.9C95.3859 148.539 89.8694 147.505 84.5295 147.797V149.376C89.8694 149.083 95.3859 150.117 99.4748 152.478C102.765 154.379 104.563 156.813 104.877 159.297C105.259 156.286 103.461 153.201 99.4748 150.9Z"
          fill="#FDD762"/>
    <path d="M45.8068 179.961L45.8099 178.135C45.8099 178.024 45.7192 177.985 45.6074 178.05L44.079 178.928C43.9664 178.992 43.8757 179.136 43.8757 179.247L43.8726 181.073C43.8726 181.185 43.9633 181.223 44.0751 181.159L45.6035 180.281C45.7153 180.216 45.8068 180.073 45.8068 179.961Z"
          fill="#FF2C9C"/>
    <path opacity="0.5"
          d="M114.074 279.415L96.3178 269.084C94.819 268.219 95.0075 266.708 96.7376 265.709L113.661 255.848C115.392 254.849 118.009 254.74 119.508 255.605L137.264 265.937C138.763 266.802 138.575 268.313 136.844 269.311L119.921 279.172C118.19 280.171 115.572 280.279 114.074 279.415Z"
          fill="#C4D9E8"/>
    <path d="M138.268 257.518V253.961L119.377 253.95L119.508 253.946C118.009 253.08 115.392 253.188 113.661 254.188L114.221 253.954L95.3131 253.943V257.74C95.2701 258.326 95.5969 258.891 96.3169 259.307L114.073 269.638C115.572 270.502 118.189 270.395 119.92 269.395L136.843 259.534C137.842 258.959 138.324 258.212 138.268 257.518Z"
          fill="#173D7A"/>
    <path d="M116.796 253.365C115.7 253.392 114.561 253.669 113.662 254.188L114.221 253.954L95.3138 253.943V257.74C95.2708 258.325 95.5976 258.89 96.3177 259.306L114.074 269.637C114.794 270.052 115.773 270.241 116.787 270.217L116.796 253.365Z"
          fill="#396CAA"/>
    <path d="M97.4536 253.945L95.3138 253.944V257.741C95.2708 258.326 95.5976 258.892 96.3177 259.308L97.4536 259.963V253.945Z"
          fill="#B2D3EA"/>
    <path d="M114.451 269.823C115.743 270.377 117.613 270.346 119.124 269.77V264.8H114.451V269.823Z" fill="#274F89"/>
    <path d="M114.074 265.873L96.318 255.542C94.8193 254.676 95.0077 253.165 96.7379 252.167L113.661 242.306C115.392 241.307 118.01 241.198 119.508 242.063L137.264 252.394C138.763 253.259 138.575 254.771 136.844 255.769L119.921 265.63C118.19 266.629 115.573 266.738 114.074 265.873Z"
          fill="#D4ECFF"/>
    <path d="M109.673 257.803C108.975 257.4 108.975 256.747 109.673 256.344L121.375 249.589C122.073 249.185 123.204 249.185 123.901 249.589C124.599 249.991 124.599 250.645 123.901 251.048L112.199 257.803C111.503 258.207 110.37 258.207 109.673 257.803Z"
          fill="white"/>
    <path d="M121.374 257.803L109.672 251.047C108.975 250.644 108.975 249.991 109.672 249.588C110.37 249.185 111.502 249.185 112.199 249.588L123.901 256.345C124.599 256.748 124.599 257.402 123.901 257.803C123.204 258.207 122.073 258.207 121.374 257.803Z"
          fill="white"/>
    <path opacity="0.5"
          d="M31.2846 70.5717L13.5287 60.2407C12.03 59.3761 12.2184 57.864 13.9486 56.8656L30.8726 47.0053C32.6028 46.0062 35.2203 45.8975 36.7191 46.763L54.475 57.0939C55.9737 57.9586 55.7853 59.4699 54.0551 60.469L37.1303 70.3293C35.4001 71.3285 32.7826 71.4372 31.2846 70.5717Z"
          fill="#C4D9E8"/>
    <path d="M55.4779 49.5228V45.9655L36.5876 45.9553L36.7182 45.9514C35.2194 45.086 32.6019 45.1946 30.8717 46.1938L31.4315 45.96L12.524 45.9499V49.7464C12.481 50.332 12.8078 50.8972 13.5279 51.3124L31.2838 61.6433C32.7825 62.5088 35.4001 62.4001 37.1302 61.401L54.0543 51.5407C55.0526 50.9645 55.5342 50.2178 55.4779 49.5228Z"
          fill="#173D7A"/>
    <path d="M34.0053 45.3711C32.9084 45.3977 31.7708 45.6737 30.8717 46.1928L31.4315 45.959L12.524 45.9489V49.7454C12.481 50.331 12.8078 50.8962 13.5279 51.3114L31.2838 61.6423C32.0038 62.0583 32.9827 62.2467 33.9967 62.2224L34.0053 45.3711Z"
          fill="#396CAA"/>
    <path d="M14.6638 45.949L12.524 45.9482V49.7448C12.481 50.3303 12.8078 50.8956 13.5279 51.3107L14.6638 51.9667V45.949Z"
          fill="#B2D3EA"/>
    <path d="M31.6597 61.8269C32.952 62.3804 34.8213 62.3499 36.3334 61.7737V56.8037H31.6597V61.8269Z" fill="#274F89"/>
    <path d="M31.2846 57.8774L13.5287 47.5464C12.03 46.6817 12.2184 45.1697 13.9486 44.1713L30.8726 34.311C32.6028 33.3118 35.2203 33.2031 36.7191 34.0686L54.475 44.3996C55.9737 45.2643 55.7853 46.7755 54.0551 47.7747L37.1311 57.635C35.4001 58.6342 32.7826 58.7421 31.2846 57.8774Z"
          fill="#D4ECFF"/>
    <path d="M39.4352 43.8684C38.7574 44.2593 37.6589 44.2593 36.9803 43.8684C36.3025 43.4767 36.3025 42.8419 36.9803 42.451C37.6581 42.0593 38.7566 42.0593 39.4352 42.451C40.1131 42.8427 40.1131 43.4767 39.4352 43.8684Z"
          fill="white"/>
    <path d="M30.6396 49.1458C29.9617 49.5367 28.8633 49.5367 28.1846 49.1458C27.5068 48.7541 27.5068 48.1192 28.1846 47.7283C28.8625 47.3366 29.961 47.3366 30.6396 47.7283C31.3174 48.12 31.3174 48.7541 30.6396 49.1458Z"
          fill="white"/>
    <path d="M38.5845 49.8082L26.883 43.0525C26.1848 42.649 26.1848 41.9954 26.883 41.5936C27.5804 41.1902 28.7125 41.1902 29.4098 41.5936L41.1121 48.3501C41.8095 48.7527 41.8095 49.4063 41.1121 49.8089C40.4147 50.2116 39.2819 50.2108 38.5845 49.8082Z"
          fill="white"/>
</svg>
